<svg width="551" height="308" viewBox="0 0 551 308" fill="none" xmlns="http://www.w3.org/2000/svg">
<g clip-path="url(#clip0_66_1277)">
<g filter="url(#filter0_d_66_1277)">
<path d="M-61.1631 31.1379L-28.4709 24L9.61813 39.2712L51.7153 24L86.915 38.9124L123.491 33.9639L156.336 47.2808L179.255 42.3263L202.953 63.4237L231.732 49.6568L256.067 71.4942L315.888 89.2508H-61.1631V31.1379Z" fill="url(#paint0_linear_66_1277)"/>
</g>
<g filter="url(#filter1_d_66_1277)">
<path d="M-61.1631 71.494L0.420219 63.4236L50.1356 71.494L88.9373 67.4578L124.507 82.7918L169.775 73.1057L200.494 82.7918C204.536 81.985 234.447 73.128 234.447 73.128L309.516 87.491L345.358 71.0339L379.189 88.4397H404.094L427.652 101.353L481.814 93.2828L500.764 100.67L519.807 94.0896L570.579 109.296L599.88 103.409L634.142 111.69L654.385 121.727L677.583 118.177L718.923 126.327V153.727L-61.1611 149.778V71.488L-61.1631 71.494Z" fill="#75A6C9"/>
</g>
<g filter="url(#filter2_d_66_1277)">
<path d="M-61.5117 115.629L102.842 89.2507L139.299 98.6166L249.842 89.2507L305.014 106.805L352.912 101.055L386.347 108.576L435.959 97.9152L458.919 107.784L485.081 116.491L523.44 109.831L592.102 129.672L639.034 133.238L718.919 148.166V300.155L-61.1645 298.326L-61.5117 115.629Z" fill="url(#paint1_linear_66_1277)"/>
</g>
<g filter="url(#filter3_d_66_1277)">
<path d="M86.2471 168.021C88.0664 167.415 352.087 134.566 352.087 134.566L463.428 159.712L569.896 171.226L634.361 211.23L718.919 227.772V272.988L86.9131 264.374L86.2451 168.019L86.2471 168.021Z" fill="url(#paint2_linear_66_1277)"/>
</g>
<g filter="url(#filter4_d_66_1277)">
<path d="M-61.1544 80.197L6.67663 85.8206L71.3888 95.5047H94.4283L129.594 110.034H179.417L211.977 125.35L259.812 131.861L438.783 227.772L555.469 246.398L718.919 263.948V373.792L-61.5117 383.494L-61.1544 80.197Z" fill="url(#paint3_linear_66_1277)"/>
</g>
<g filter="url(#filter5_d_66_1277)">
<path d="M220.583 255.762C223.801 235.626 217.271 214.883 205.641 199.253C205.738 201.3 202.431 210.255 201.243 212.215C198.967 215.972 196.337 227.622 194.427 231.571C190.557 239.571 192.214 237.732 190.774 246.534C189.761 252.734 191.525 258.609 189.814 264.749C187.314 273.72 182.636 281.301 187.767 290.509C191.738 297.639 199.298 302.346 205.472 307.449C211.125 312.12 213.45 311.104 218.242 305.067C230.585 289.518 225.036 275.283 221.131 258.215C220.944 257.398 220.447 256.589 220.581 255.762H220.583Z" fill="url(#paint4_linear_66_1277)"/>
</g>
<g filter="url(#filter6_d_66_1277)">
<path d="M241.441 249.983C241.648 248.647 241.847 247.295 242.03 245.926C243 238.608 243.427 230.722 244.86 223.547C246.413 215.785 252.998 207.461 257.912 200.954C262.245 210.778 265.518 220.985 267.686 231.397C269.376 239.506 269.384 247.303 274.027 254.497C278.724 261.775 283.128 269.318 278.955 277.924C275.638 284.766 268.48 289.808 262.754 295.056C257.512 299.861 255.077 299.192 249.684 294.26C235.057 280.88 238.862 266.59 241.441 249.985V249.983Z" fill="url(#paint5_linear_66_1277)"/>
</g>
<g filter="url(#filter7_d_66_1277)">
<path d="M249.899 299.198C254.677 279.402 263.736 224.699 260.575 214.078C257.416 203.457 292.27 298.186 298.532 305.784C304.794 313.382 290.224 327.162 284.27 336.282C278.317 345.403 245.826 316.073 249.899 299.198Z" fill="url(#paint6_linear_66_1277)"/>
</g>
<g filter="url(#filter8_d_66_1277)">
<path d="M288.672 279.211C289.24 276.856 289.718 274.53 290.008 272.256C292.418 253.285 296.721 234.796 303.876 216.973C303.344 218.299 314.331 234.782 315.419 237.56C318.44 245.281 320.353 253.425 321.07 261.665C322.227 274.98 321.295 289.589 325.685 302.512C329.472 313.662 313.171 325.305 305.858 331.35C300.203 336.023 297.88 335.007 293.086 328.968C288.591 323.304 284.589 315.58 283.675 308.367C282.487 298.991 286.347 288.837 288.674 279.209L288.672 279.211Z" fill="url(#paint7_linear_66_1277)"/>
</g>
<g filter="url(#filter9_d_66_1277)">
<path d="M342.734 274.212C343.078 272.769 343.413 271.307 343.733 269.827C345.447 261.905 346.682 253.297 348.836 245.585C351.167 237.243 358.505 228.863 364.011 222.286C367.256 233.572 369.416 245.154 370.468 256.835C371.289 265.933 370.491 274.492 374.31 282.925C378.176 291.456 381.723 300.244 376.728 309.21C372.757 316.34 365.197 321.047 359.023 326.15C353.37 330.821 351.045 329.805 346.253 323.768C333.254 307.394 338.479 292.145 342.734 274.212Z" fill="url(#paint8_linear_66_1277)"/>
</g>
<g filter="url(#filter10_d_66_1277)">
<path d="M18.2481 165.851C31.9434 96.8944 43.2083 119.445 47.6732 174.12C58.199 190.496 48.2296 206.063 33.4276 215.123C10.2258 223.185 12.3801 179.973 18.2481 165.851Z" fill="url(#paint9_linear_66_1277)"/>
<path d="M86.9682 189.864C96.5011 169.054 116.976 123.484 116.976 110.396C116.976 97.3081 125.098 202.95 128.671 213.655C116.45 263.641 79.5206 240.97 86.9682 189.862V189.864Z" fill="url(#paint10_linear_66_1277)"/>
<path d="M146.89 196.174C151.724 172.729 159.083 149.775 169.428 128.158C172.926 160.055 175.405 194.474 180.199 225.829C155.046 271.813 132.857 229.083 146.89 196.176V196.174Z" fill="url(#paint11_linear_66_1277)"/>
<path d="M172.234 205.735C185.93 136.778 197.195 159.329 201.66 214.004C212.185 230.38 202.216 245.947 187.414 255.007C164.212 263.069 166.366 219.856 172.234 205.735Z" fill="url(#paint12_linear_66_1277)"/>
<path d="M201.032 191.1C204.859 173.465 207.212 155.512 208.057 137.488C274.714 228.734 178.843 291.331 201.032 191.1Z" fill="url(#paint13_linear_66_1277)"/>
<path d="M121.84 210.475C125.13 190.366 128.151 170.394 136.013 151.429C153.875 174.272 150.853 205.567 156.336 232.586C143.292 286.186 103.164 253.574 121.84 210.477V210.475Z" fill="url(#paint14_linear_66_1277)"/>
<path d="M248.893 222.866C241.437 151.513 228.085 171.489 217.917 227.698C205.116 243.893 215.121 260.549 228.63 271.053C250.374 282.738 254.141 238.679 248.891 222.869L248.893 222.866Z" fill="url(#paint15_linear_66_1277)"/>
<path d="M226.848 262.151C222.314 243.368 213.722 191.471 216.719 181.396C219.718 171.32 186.648 261.192 180.707 268.401C174.766 275.61 188.589 288.681 194.237 297.334C199.886 305.986 230.712 278.16 226.846 262.151H226.848Z" fill="url(#paint16_linear_66_1277)"/>
<path d="M155.667 239.46C141.732 170.536 130.299 192.89 125.718 247.729C114.956 264.219 125.265 279.725 140.217 288.732C163.669 296.91 161.726 253.665 155.669 239.46H155.667Z" fill="url(#paint17_linear_66_1277)"/>
<path d="M125.626 223.806C121.732 206.171 119.334 188.218 118.475 170.193C50.6867 261.121 148.111 324.262 125.626 223.806Z" fill="url(#paint18_linear_66_1277)"/>
<path d="M181.463 229.902C176.539 206.447 169.053 183.504 158.523 161.886C154.968 193.772 152.432 228.231 147.561 259.556C172.898 305.319 195.826 263.229 181.463 229.904V229.902Z" fill="url(#paint19_linear_66_1277)"/>
<path d="M386.644 281.201C381.277 262.692 369.708 210.844 371.326 199.943C372.944 189.043 353.265 287.398 348.965 295.876C352.959 339.012 386.524 324.694 386.644 281.201Z" fill="url(#paint20_linear_66_1277)"/>
<path d="M322.5 254.147C317.881 231.749 310.849 209.816 300.967 189.164C297.625 219.64 295.255 252.522 290.677 282.478C314.709 326.412 335.909 285.588 322.5 254.147Z" fill="url(#paint21_linear_66_1277)"/>
<path d="M298.288 263.28C285.201 197.399 274.442 218.944 270.174 271.18C260.117 286.827 269.642 301.698 283.784 310.355C305.95 318.058 303.894 276.771 298.288 263.28Z" fill="url(#paint22_linear_66_1277)"/>
<path d="M269.827 249.298C266.17 232.45 263.92 215.298 263.114 198.078C199.588 284.226 290.743 345.748 269.827 249.298Z" fill="url(#paint23_linear_66_1277)"/>
<path d="M346.434 267.811C343.291 248.601 340.403 229.518 332.895 211.399C315.829 233.224 318.716 263.122 313.478 288.935C325.94 340.145 364.277 308.986 346.434 267.811Z" fill="url(#paint24_linear_66_1277)"/>
<path d="M337.669 289.332C341.39 272.484 343.679 255.331 344.501 238.112C409.266 324.985 316.187 385.31 337.669 289.332Z" fill="url(#paint25_linear_66_1277)"/>
<path d="M289.47 286.371C294.172 263.961 301.328 242.041 311.386 221.387C314.783 251.853 317.206 284.773 321.86 314.701C297.651 358.425 275.746 318.21 289.47 286.371Z" fill="url(#paint26_linear_66_1277)"/>
<path d="M-7.09663 156.293C-2.26214 132.848 5.09618 109.893 15.4413 88.2766C18.9397 120.173 21.4189 154.592 26.2128 185.947C1.05966 231.931 -21.129 189.201 -7.09663 156.295V156.293Z" fill="url(#paint27_linear_66_1277)"/>
<path d="M60.2003 106.976C73.3373 134.074 94.4214 181.1 61.1323 200.251C26.4361 213.149 60.6795 102.411 60.2003 106.976Z" fill="url(#paint28_linear_66_1277)"/>
<path d="M-32.1469 170.593C-28.8576 150.484 -25.8363 130.512 -17.9744 111.547C-0.112591 134.39 -3.13389 165.685 2.3483 192.704C-10.6953 246.304 -50.8229 213.692 -32.1469 170.595V170.593Z" fill="url(#paint29_linear_66_1277)"/>
<path d="M97.7804 176.591C90.3409 113.273 77.0171 130.999 66.871 180.879C54.0975 195.25 64.0812 210.031 77.5613 219.352C99.2586 229.721 103.017 190.624 97.7784 176.593L97.7804 176.591Z" fill="url(#paint30_linear_66_1277)"/>
<path d="M89.7566 218.851C85.2226 200.069 76.6298 148.171 79.6267 138.096C82.6257 128.021 49.5559 217.892 43.6148 225.101C37.6737 232.31 51.497 245.382 57.1457 254.034C62.7944 262.686 93.6206 234.86 89.7546 218.851H89.7566Z" fill="url(#paint31_linear_66_1277)"/>
<path d="M52.9717 204.32C49.6214 184.206 46.5494 164.241 38.5474 145.274C20.4074 168.032 23.4328 199.371 17.8633 226.431C30.8764 279.715 72.0274 247.877 52.9717 204.322V204.32Z" fill="url(#paint32_linear_66_1277)"/>
<path d="M1.68053 199.578C-12.2544 130.654 -23.6878 153.008 -28.2685 207.847C-39.0298 224.337 -28.7213 239.843 -13.7691 248.85C9.6825 257.028 7.73937 213.783 1.68256 199.578H1.68053Z" fill="url(#paint33_linear_66_1277)"/>
<path d="M27.4755 190.02C22.5517 166.565 15.0655 143.622 4.5356 122.004C0.980293 153.89 -1.55573 188.349 -6.42676 219.674C18.9111 265.437 41.8389 223.348 27.4755 190.022V190.02Z" fill="url(#paint34_linear_66_1277)"/>
<path d="M564.914 324.732C560.079 301.287 552.721 278.333 542.376 256.716C538.878 288.613 536.398 323.031 531.604 354.386C556.758 400.37 578.946 357.64 564.914 324.734V324.732Z" fill="url(#paint35_linear_66_1277)"/>
<path d="M539.573 321.807C525.878 252.85 514.613 275.401 510.148 330.076C499.622 346.452 509.592 362.019 524.393 371.079C547.595 379.141 545.441 335.928 539.573 321.807Z" fill="url(#paint36_linear_66_1277)"/>
<path d="M510.773 307.172C506.945 289.537 504.592 271.584 503.747 253.56C437.09 344.806 532.961 407.403 510.773 307.172Z" fill="url(#paint37_linear_66_1277)"/>
<path d="M491.946 370.385C499.376 352.548 516.023 302.639 514.646 292.219C513.27 281.799 531.798 375.739 536.531 383.789C541.264 391.84 525.558 402.584 518.618 410.243C511.678 417.904 485.611 385.592 491.944 370.385H491.946Z" fill="url(#paint38_linear_66_1277)"/>
<path d="M540.25 355.856C554.185 286.932 565.619 309.286 570.199 364.125C580.961 380.615 570.652 396.121 555.7 405.128C532.248 413.306 534.191 370.061 540.248 355.856H540.25Z" fill="url(#paint39_linear_66_1277)"/>
<path d="M351.323 329.411C356.69 310.902 368.259 259.053 366.641 248.153C365.023 237.253 384.702 335.608 389.002 344.086C385.008 387.222 351.443 372.903 351.323 329.411Z" fill="url(#paint40_linear_66_1277)"/>
<path d="M415.467 302.357C420.086 279.958 427.118 258.026 437 237.374C440.342 267.85 442.711 300.732 447.29 330.688C423.258 374.622 402.058 333.798 415.467 302.357Z" fill="url(#paint41_linear_66_1277)"/>
<path d="M439.68 311.49C452.766 245.609 463.526 267.154 467.794 319.39C477.851 335.036 468.326 349.908 454.184 358.565C432.017 366.268 434.074 324.981 439.68 311.49Z" fill="url(#paint42_linear_66_1277)"/>
<path d="M391.535 316.021C394.678 296.811 397.565 277.728 405.074 259.609C422.139 281.434 419.252 311.332 424.491 337.145C412.028 388.355 373.691 357.196 391.535 316.021Z" fill="url(#paint43_linear_66_1277)"/>
<path d="M400.301 337.542C396.579 320.694 394.291 303.541 393.468 286.322C328.703 373.195 421.783 433.52 400.301 337.542Z" fill="url(#paint44_linear_66_1277)"/>
<path d="M448.498 334.58C443.796 312.171 436.64 290.251 426.581 269.597C423.185 300.063 420.762 332.983 416.108 362.911C440.317 406.635 462.222 366.42 448.498 334.58Z" fill="url(#paint45_linear_66_1277)"/>
<path d="M460.98 328.679C461.158 328.186 461.345 327.69 461.54 327.187C466.121 315.368 468.833 303.728 475.363 292.598C478.758 299.789 482.037 307.048 485.554 314.18C486.472 316.041 491.645 332.669 491.075 332.669C503.848 347.04 493.865 361.82 480.385 371.142C466.04 381.059 459.112 357.912 458.295 348.459C457.654 341.015 458.58 335.294 460.98 328.681V328.679Z" fill="url(#paint46_linear_66_1277)"/>
</g>
<g filter="url(#filter11_d_66_1277)">
<path d="M-60.8994 115.629L28.8319 137.422L173.127 234.275L250.733 276.647H365.926L577.078 340.813L719.531 334.277L720.102 376.832H-60.8994V115.629Z" fill="url(#paint47_linear_66_1277)"/>
</g>
</g>
<defs>
<filter id="filter0_d_66_1277" x="-101.163" y="0" width="441.051" height="129.251" filterUnits="userSpaceOnUse" color-interpolation-filters="sRGB">
<feFlood flood-opacity="0" result="BackgroundImageFix"/>
<feColorMatrix in="SourceAlpha" type="matrix" values="0 0 0 0 0 0 0 0 0 0 0 0 0 0 0 0 0 0 127 0" result="hardAlpha"/>
<feMorphology radius="16" operator="dilate" in="SourceAlpha" result="effect1_dropShadow_66_1277"/>
<feOffset dx="-8" dy="8"/>
<feGaussianBlur stdDeviation="8"/>
<feComposite in2="hardAlpha" operator="out"/>
<feColorMatrix type="matrix" values="0 0 0 0 0 0 0 0 0 0 0 0 0 0 0 0 0 0 0.56 0"/>
<feBlend mode="normal" in2="BackgroundImageFix" result="effect1_dropShadow_66_1277"/>
<feBlend mode="normal" in="SourceGraphic" in2="effect1_dropShadow_66_1277" result="shape"/>
</filter>
<filter id="filter1_d_66_1277" x="-101.163" y="39.4236" width="844.086" height="154.303" filterUnits="userSpaceOnUse" color-interpolation-filters="sRGB">
<feFlood flood-opacity="0" result="BackgroundImageFix"/>
<feColorMatrix in="SourceAlpha" type="matrix" values="0 0 0 0 0 0 0 0 0 0 0 0 0 0 0 0 0 0 127 0" result="hardAlpha"/>
<feMorphology radius="16" operator="dilate" in="SourceAlpha" result="effect1_dropShadow_66_1277"/>
<feOffset dx="-8" dy="8"/>
<feGaussianBlur stdDeviation="8"/>
<feComposite in2="hardAlpha" operator="out"/>
<feColorMatrix type="matrix" values="0 0 0 0 0 0 0 0 0 0 0 0 0 0 0 0 0 0 0.56 0"/>
<feBlend mode="normal" in2="BackgroundImageFix" result="effect1_dropShadow_66_1277"/>
<feBlend mode="normal" in="SourceGraphic" in2="effect1_dropShadow_66_1277" result="shape"/>
</filter>
<filter id="filter2_d_66_1277" x="-101.512" y="65.2507" width="844.431" height="274.904" filterUnits="userSpaceOnUse" color-interpolation-filters="sRGB">
<feFlood flood-opacity="0" result="BackgroundImageFix"/>
<feColorMatrix in="SourceAlpha" type="matrix" values="0 0 0 0 0 0 0 0 0 0 0 0 0 0 0 0 0 0 127 0" result="hardAlpha"/>
<feMorphology radius="16" operator="dilate" in="SourceAlpha" result="effect1_dropShadow_66_1277"/>
<feOffset dx="-8" dy="8"/>
<feGaussianBlur stdDeviation="8"/>
<feComposite in2="hardAlpha" operator="out"/>
<feColorMatrix type="matrix" values="0 0 0 0 0 0 0 0 0 0 0 0 0 0 0 0 0 0 0.56 0"/>
<feBlend mode="normal" in2="BackgroundImageFix" result="effect1_dropShadow_66_1277"/>
<feBlend mode="normal" in="SourceGraphic" in2="effect1_dropShadow_66_1277" result="shape"/>
</filter>
<filter id="filter3_d_66_1277" x="46.2451" y="110.566" width="696.674" height="202.422" filterUnits="userSpaceOnUse" color-interpolation-filters="sRGB">
<feFlood flood-opacity="0" result="BackgroundImageFix"/>
<feColorMatrix in="SourceAlpha" type="matrix" values="0 0 0 0 0 0 0 0 0 0 0 0 0 0 0 0 0 0 127 0" result="hardAlpha"/>
<feMorphology radius="16" operator="dilate" in="SourceAlpha" result="effect1_dropShadow_66_1277"/>
<feOffset dx="-8" dy="8"/>
<feGaussianBlur stdDeviation="8"/>
<feComposite in2="hardAlpha" operator="out"/>
<feColorMatrix type="matrix" values="0 0 0 0 0 0 0 0 0 0 0 0 0 0 0 0 0 0 0.56 0"/>
<feBlend mode="normal" in2="BackgroundImageFix" result="effect1_dropShadow_66_1277"/>
<feBlend mode="normal" in="SourceGraphic" in2="effect1_dropShadow_66_1277" result="shape"/>
</filter>
<filter id="filter4_d_66_1277" x="-101.512" y="56.197" width="844.431" height="367.297" filterUnits="userSpaceOnUse" color-interpolation-filters="sRGB">
<feFlood flood-opacity="0" result="BackgroundImageFix"/>
<feColorMatrix in="SourceAlpha" type="matrix" values="0 0 0 0 0 0 0 0 0 0 0 0 0 0 0 0 0 0 127 0" result="hardAlpha"/>
<feMorphology radius="16" operator="dilate" in="SourceAlpha" result="effect1_dropShadow_66_1277"/>
<feOffset dx="-8" dy="8"/>
<feGaussianBlur stdDeviation="8"/>
<feComposite in2="hardAlpha" operator="out"/>
<feColorMatrix type="matrix" values="0 0 0 0 0 0 0 0 0 0 0 0 0 0 0 0 0 0 0.56 0"/>
<feBlend mode="normal" in2="BackgroundImageFix" result="effect1_dropShadow_66_1277"/>
<feBlend mode="normal" in="SourceGraphic" in2="effect1_dropShadow_66_1277" result="shape"/>
</filter>
<filter id="filter5_d_66_1277" x="60.2209" y="147.693" width="217.158" height="287.921" filterUnits="userSpaceOnUse" color-interpolation-filters="sRGB">
<feFlood flood-opacity="0" result="BackgroundImageFix"/>
<feColorMatrix in="SourceAlpha" type="matrix" values="0 0 0 0 0 0 0 0 0 0 0 0 0 0 0 0 0 0 127 0" result="hardAlpha"/>
<feOffset dx="-36.84" dy="36.84"/>
<feGaussianBlur stdDeviation="44.2"/>
<feColorMatrix type="matrix" values="0 0 0 0 0 0 0 0 0 0 0 0 0 0 0 0 0 0 0.5 0"/>
<feBlend mode="normal" in2="BackgroundImageFix" result="effect1_dropShadow_66_1277"/>
<feBlend mode="normal" in="SourceGraphic" in2="effect1_dropShadow_66_1277" result="shape"/>
</filter>
<filter id="filter6_d_66_1277" x="119.117" y="151.594" width="210.868" height="266.616" filterUnits="userSpaceOnUse" color-interpolation-filters="sRGB">
<feFlood flood-opacity="0" result="BackgroundImageFix"/>
<feColorMatrix in="SourceAlpha" type="matrix" values="0 0 0 0 0 0 0 0 0 0 0 0 0 0 0 0 0 0 127 0" result="hardAlpha"/>
<feOffset dx="-35.26" dy="35.26"/>
<feGaussianBlur stdDeviation="42.31"/>
<feColorMatrix type="matrix" values="0 0 0 0 0 0 0 0 0 0 0 0 0 0 0 0 0 0 0.5 0"/>
<feBlend mode="normal" in2="BackgroundImageFix" result="effect1_dropShadow_66_1277"/>
<feBlend mode="normal" in="SourceGraphic" in2="effect1_dropShadow_66_1277" result="shape"/>
</filter>
<filter id="filter7_d_66_1277" x="137.297" y="167.019" width="208.998" height="283.233" filterUnits="userSpaceOnUse" color-interpolation-filters="sRGB">
<feFlood flood-opacity="0" result="BackgroundImageFix"/>
<feColorMatrix in="SourceAlpha" type="matrix" values="0 0 0 0 0 0 0 0 0 0 0 0 0 0 0 0 0 0 127 0" result="hardAlpha"/>
<feOffset dx="-33.01" dy="33.01"/>
<feGaussianBlur stdDeviation="39.62"/>
<feColorMatrix type="matrix" values="0 0 0 0 0 0 0 0 0 0 0 0 0 0 0 0 0 0 0.5 0"/>
<feBlend mode="normal" in2="BackgroundImageFix" result="effect1_dropShadow_66_1277"/>
<feBlend mode="normal" in="SourceGraphic" in2="effect1_dropShadow_66_1277" result="shape"/>
</filter>
<filter id="filter8_d_66_1277" x="158.213" y="165.413" width="219.594" height="294.104" filterUnits="userSpaceOnUse" color-interpolation-filters="sRGB">
<feFlood flood-opacity="0" result="BackgroundImageFix"/>
<feColorMatrix in="SourceAlpha" type="matrix" values="0 0 0 0 0 0 0 0 0 0 0 0 0 0 0 0 0 0 127 0" result="hardAlpha"/>
<feOffset dx="-36.84" dy="36.84"/>
<feGaussianBlur stdDeviation="44.2"/>
<feColorMatrix type="matrix" values="0 0 0 0 0 0 0 0 0 0 0 0 0 0 0 0 0 0 0.5 0"/>
<feBlend mode="normal" in2="BackgroundImageFix" result="effect1_dropShadow_66_1277"/>
<feBlend mode="normal" in="SourceGraphic" in2="effect1_dropShadow_66_1277" result="shape"/>
</filter>
<filter id="filter9_d_66_1277" x="212.768" y="170.726" width="217.979" height="283.589" filterUnits="userSpaceOnUse" color-interpolation-filters="sRGB">
<feFlood flood-opacity="0" result="BackgroundImageFix"/>
<feColorMatrix in="SourceAlpha" type="matrix" values="0 0 0 0 0 0 0 0 0 0 0 0 0 0 0 0 0 0 127 0" result="hardAlpha"/>
<feOffset dx="-36.84" dy="36.84"/>
<feGaussianBlur stdDeviation="44.2"/>
<feColorMatrix type="matrix" values="0 0 0 0 0 0 0 0 0 0 0 0 0 0 0 0 0 0 0.5 0"/>
<feBlend mode="normal" in2="BackgroundImageFix" result="effect1_dropShadow_66_1277"/>
<feBlend mode="normal" in="SourceGraphic" in2="effect1_dropShadow_66_1277" result="shape"/>
</filter>
<filter id="filter10_d_66_1277" x="-108" y="32.1807" width="860" height="423.489" filterUnits="userSpaceOnUse" color-interpolation-filters="sRGB">
<feFlood flood-opacity="0" result="BackgroundImageFix"/>
<feColorMatrix in="SourceAlpha" type="matrix" values="0 0 0 0 0 0 0 0 0 0 0 0 0 0 0 0 0 0 127 0" result="hardAlpha"/>
<feMorphology radius="16" operator="dilate" in="SourceAlpha" result="effect1_dropShadow_66_1277"/>
<feOffset dx="-8" dy="8"/>
<feGaussianBlur stdDeviation="8"/>
<feComposite in2="hardAlpha" operator="out"/>
<feColorMatrix type="matrix" values="0 0 0 0 0 0 0 0 0 0 0 0 0 0 0 0 0 0 0.56 0"/>
<feBlend mode="normal" in2="BackgroundImageFix" result="effect1_dropShadow_66_1277"/>
<feBlend mode="normal" in="SourceGraphic" in2="effect1_dropShadow_66_1277" result="shape"/>
</filter>
<filter id="filter11_d_66_1277" x="-100.899" y="91.6292" width="845.001" height="325.203" filterUnits="userSpaceOnUse" color-interpolation-filters="sRGB">
<feFlood flood-opacity="0" result="BackgroundImageFix"/>
<feColorMatrix in="SourceAlpha" type="matrix" values="0 0 0 0 0 0 0 0 0 0 0 0 0 0 0 0 0 0 127 0" result="hardAlpha"/>
<feMorphology radius="16" operator="dilate" in="SourceAlpha" result="effect1_dropShadow_66_1277"/>
<feOffset dx="-8" dy="8"/>
<feGaussianBlur stdDeviation="8"/>
<feComposite in2="hardAlpha" operator="out"/>
<feColorMatrix type="matrix" values="0 0 0 0 0 0 0 0 0 0 0 0 0 0 0 0 0 0 0.56 0"/>
<feBlend mode="normal" in2="BackgroundImageFix" result="effect1_dropShadow_66_1277"/>
<feBlend mode="normal" in="SourceGraphic" in2="effect1_dropShadow_66_1277" result="shape"/>
</filter>
<linearGradient id="paint0_linear_66_1277" x1="-61.1631" y1="56.6244" x2="315.888" y2="56.6244" gradientUnits="userSpaceOnUse">
<stop stop-color="#C8D9E5"/>
<stop offset="0.27" stop-color="#CEDCE5"/>
<stop offset="0.64" stop-color="#E0E8E6"/>
<stop offset="1" stop-color="#F8F7E8"/>
</linearGradient>
<linearGradient id="paint1_linear_66_1277" x1="316.205" y1="288.476" x2="346.2" y2="94.4728" gradientUnits="userSpaceOnUse">
<stop offset="0.35" stop-color="#205987"/>
<stop offset="1" stop-color="#4E808C"/>
</linearGradient>
<linearGradient id="paint2_linear_66_1277" x1="273.188" y1="444.273" x2="446.651" y2="143.348" gradientUnits="userSpaceOnUse">
<stop offset="0.33" stop-color="#2559A1"/>
<stop offset="1" stop-color="#379C9D"/>
</linearGradient>
<linearGradient id="paint3_linear_66_1277" x1="276.703" y1="321.576" x2="407.093" y2="84.481" gradientUnits="userSpaceOnUse">
<stop offset="0.31" stop-color="#007300"/>
<stop offset="0.69" stop-color="#254A00"/>
</linearGradient>
<linearGradient id="paint4_linear_66_1277" x1="234.647" y1="262.108" x2="164.816" y2="243.888" gradientUnits="userSpaceOnUse">
<stop stop-color="#24523B"/>
<stop offset="0.2" stop-color="#215839"/>
<stop offset="0.47" stop-color="#186A36"/>
<stop offset="0.78" stop-color="#0B8730"/>
<stop offset="1" stop-color="#00A02C"/>
</linearGradient>
<linearGradient id="paint5_linear_66_1277" x1="234.238" y1="243.834" x2="291.321" y2="259.569" gradientUnits="userSpaceOnUse">
<stop stop-color="#006160"/>
<stop offset="0.26" stop-color="#015A5A"/>
<stop offset="0.61" stop-color="#06484B"/>
<stop offset="1" stop-color="#0F2D34"/>
</linearGradient>
<linearGradient id="paint6_linear_66_1277" x1="243.633" y1="273.934" x2="310.846" y2="284.992" gradientUnits="userSpaceOnUse">
<stop stop-color="#24523B"/>
<stop offset="0.2" stop-color="#215839"/>
<stop offset="0.47" stop-color="#186A36"/>
<stop offset="0.78" stop-color="#0B8730"/>
<stop offset="1" stop-color="#00A02C"/>
</linearGradient>
<linearGradient id="paint7_linear_66_1277" x1="278.85" y1="267.034" x2="341.304" y2="291.307" gradientUnits="userSpaceOnUse">
<stop stop-color="#24523B"/>
<stop offset="0.2" stop-color="#215839"/>
<stop offset="0.47" stop-color="#186A36"/>
<stop offset="0.78" stop-color="#0B8730"/>
<stop offset="1" stop-color="#00A02C"/>
</linearGradient>
<linearGradient id="paint8_linear_66_1277" x1="335.419" y1="267.013" x2="392.616" y2="289.244" gradientUnits="userSpaceOnUse">
<stop stop-color="#24523B"/>
<stop offset="0.2" stop-color="#215839"/>
<stop offset="0.47" stop-color="#186A36"/>
<stop offset="0.78" stop-color="#0B8730"/>
<stop offset="1" stop-color="#00A02C"/>
</linearGradient>
<linearGradient id="paint9_linear_66_1277" x1="10.9486" y1="162.074" x2="62.688" y2="181.791" gradientUnits="userSpaceOnUse">
<stop stop-color="#006160"/>
<stop offset="0.26" stop-color="#015A5A"/>
<stop offset="0.61" stop-color="#06484B"/>
<stop offset="1" stop-color="#0F2D34"/>
</linearGradient>
<linearGradient id="paint10_linear_66_1277" x1="89.624" y1="167.325" x2="146.111" y2="188.851" gradientUnits="userSpaceOnUse">
<stop stop-color="#006160"/>
<stop offset="0.26" stop-color="#015A5A"/>
<stop offset="0.61" stop-color="#06484B"/>
<stop offset="1" stop-color="#0F2D34"/>
</linearGradient>
<linearGradient id="paint11_linear_66_1277" x1="142.53" y1="187.058" x2="180.199" y2="187.058" gradientUnits="userSpaceOnUse">
<stop stop-color="#24523B"/>
<stop offset="0.2" stop-color="#215839"/>
<stop offset="0.47" stop-color="#186A36"/>
<stop offset="0.78" stop-color="#0B8730"/>
<stop offset="1" stop-color="#00A02C"/>
</linearGradient>
<linearGradient id="paint12_linear_66_1277" x1="164.935" y1="201.956" x2="216.674" y2="221.672" gradientUnits="userSpaceOnUse">
<stop stop-color="#006160"/>
<stop offset="0.26" stop-color="#015A5A"/>
<stop offset="0.61" stop-color="#06484B"/>
<stop offset="1" stop-color="#0F2D34"/>
</linearGradient>
<linearGradient id="paint13_linear_66_1277" x1="185.913" y1="181.418" x2="243.538" y2="203.377" gradientUnits="userSpaceOnUse">
<stop stop-color="#006160"/>
<stop offset="0.26" stop-color="#015A5A"/>
<stop offset="0.61" stop-color="#06484B"/>
<stop offset="1" stop-color="#0F2D34"/>
</linearGradient>
<linearGradient id="paint14_linear_66_1277" x1="112.982" y1="197.833" x2="169.383" y2="219.324" gradientUnits="userSpaceOnUse">
<stop stop-color="#006160"/>
<stop offset="0.26" stop-color="#015A5A"/>
<stop offset="0.61" stop-color="#06484B"/>
<stop offset="1" stop-color="#0F2D34"/>
</linearGradient>
<linearGradient id="paint15_linear_66_1277" x1="254.739" y1="219.285" x2="201.493" y2="232.339" gradientUnits="userSpaceOnUse">
<stop stop-color="#006160"/>
<stop offset="0.26" stop-color="#015A5A"/>
<stop offset="0.61" stop-color="#06484B"/>
<stop offset="1" stop-color="#0F2D34"/>
</linearGradient>
<linearGradient id="paint16_linear_66_1277" x1="230.885" y1="236.242" x2="167.118" y2="246.73" gradientUnits="userSpaceOnUse">
<stop stop-color="#24523B"/>
<stop offset="0.2" stop-color="#215839"/>
<stop offset="0.47" stop-color="#186A36"/>
<stop offset="0.78" stop-color="#0B8730"/>
<stop offset="1" stop-color="#00A02C"/>
</linearGradient>
<linearGradient id="paint17_linear_66_1277" x1="160.279" y1="235.675" x2="107.761" y2="256.088" gradientUnits="userSpaceOnUse">
<stop stop-color="#24523B"/>
<stop offset="0.2" stop-color="#215839"/>
<stop offset="0.47" stop-color="#186A36"/>
<stop offset="0.78" stop-color="#0B8730"/>
<stop offset="1" stop-color="#00A02C"/>
</linearGradient>
<linearGradient id="paint18_linear_66_1277" x1="138.143" y1="228.661" x2="73.2051" y2="211.718" gradientUnits="userSpaceOnUse">
<stop stop-color="#24523B"/>
<stop offset="0.2" stop-color="#215839"/>
<stop offset="0.47" stop-color="#186A36"/>
<stop offset="0.78" stop-color="#0B8730"/>
<stop offset="1" stop-color="#00A02C"/>
</linearGradient>
<linearGradient id="paint19_linear_66_1277" x1="181.821" y1="213.489" x2="127.946" y2="234.428" gradientUnits="userSpaceOnUse">
<stop stop-color="#24523B"/>
<stop offset="0.2" stop-color="#215839"/>
<stop offset="0.47" stop-color="#186A36"/>
<stop offset="0.78" stop-color="#0B8730"/>
<stop offset="1" stop-color="#00A02C"/>
</linearGradient>
<linearGradient id="paint20_linear_66_1277" x1="388.509" y1="256.288" x2="336.031" y2="267.845" gradientUnits="userSpaceOnUse">
<stop stop-color="#006160"/>
<stop offset="0.26" stop-color="#015A5A"/>
<stop offset="0.61" stop-color="#06484B"/>
<stop offset="1" stop-color="#0F2D34"/>
</linearGradient>
<linearGradient id="paint21_linear_66_1277" x1="325.446" y1="238.475" x2="274.724" y2="257.803" gradientUnits="userSpaceOnUse">
<stop stop-color="#006160"/>
<stop offset="0.26" stop-color="#015A5A"/>
<stop offset="0.61" stop-color="#06484B"/>
<stop offset="1" stop-color="#0F2D34"/>
</linearGradient>
<linearGradient id="paint22_linear_66_1277" x1="305.26" y1="259.672" x2="255.828" y2="278.508" gradientUnits="userSpaceOnUse">
<stop stop-color="#006160"/>
<stop offset="0.26" stop-color="#015A5A"/>
<stop offset="0.61" stop-color="#06484B"/>
<stop offset="1" stop-color="#0F2D34"/>
</linearGradient>
<linearGradient id="paint23_linear_66_1277" x1="284.276" y1="240.076" x2="229.309" y2="261.021" gradientUnits="userSpaceOnUse">
<stop stop-color="#24523B"/>
<stop offset="0.2" stop-color="#215839"/>
<stop offset="0.47" stop-color="#186A36"/>
<stop offset="0.78" stop-color="#0B8730"/>
<stop offset="1" stop-color="#00A02C"/>
</linearGradient>
<linearGradient id="paint24_linear_66_1277" x1="354.899" y1="255.731" x2="301.012" y2="276.264" gradientUnits="userSpaceOnUse">
<stop stop-color="#006160"/>
<stop offset="0.26" stop-color="#015A5A"/>
<stop offset="0.61" stop-color="#06484B"/>
<stop offset="1" stop-color="#0F2D34"/>
</linearGradient>
<linearGradient id="paint25_linear_66_1277" x1="323.341" y1="293.973" x2="385.383" y2="277.786" gradientUnits="userSpaceOnUse">
<stop stop-color="#24523B"/>
<stop offset="0.2" stop-color="#215839"/>
<stop offset="0.47" stop-color="#186A36"/>
<stop offset="0.78" stop-color="#0B8730"/>
<stop offset="1" stop-color="#00A02C"/>
</linearGradient>
<linearGradient id="paint26_linear_66_1277" x1="286.772" y1="270.69" x2="338.245" y2="290.697" gradientUnits="userSpaceOnUse">
<stop stop-color="#24523B"/>
<stop offset="0.2" stop-color="#215839"/>
<stop offset="0.47" stop-color="#186A36"/>
<stop offset="0.78" stop-color="#0B8730"/>
<stop offset="1" stop-color="#00A02C"/>
</linearGradient>
<linearGradient id="paint27_linear_66_1277" x1="-10.1809" y1="139.888" x2="42.9102" y2="160.119" gradientUnits="userSpaceOnUse">
<stop stop-color="#006160"/>
<stop offset="0.26" stop-color="#015A5A"/>
<stop offset="0.61" stop-color="#06484B"/>
<stop offset="1" stop-color="#0F2D34"/>
</linearGradient>
<linearGradient id="paint28_linear_66_1277" x1="40.0299" y1="147.515" x2="89.0414" y2="166.19" gradientUnits="userSpaceOnUse">
<stop stop-color="#006160"/>
<stop offset="0.26" stop-color="#015A5A"/>
<stop offset="0.61" stop-color="#06484B"/>
<stop offset="1" stop-color="#0F2D34"/>
</linearGradient>
<linearGradient id="paint29_linear_66_1277" x1="-41.0057" y1="157.951" x2="15.3957" y2="179.442" gradientUnits="userSpaceOnUse">
<stop stop-color="#006160"/>
<stop offset="0.26" stop-color="#015A5A"/>
<stop offset="0.61" stop-color="#06484B"/>
<stop offset="1" stop-color="#0F2D34"/>
</linearGradient>
<linearGradient id="paint30_linear_66_1277" x1="103.607" y1="220.279" x2="58.5417" y2="136.861" gradientUnits="userSpaceOnUse">
<stop stop-color="#24523B"/>
<stop offset="0.2" stop-color="#215839"/>
<stop offset="0.47" stop-color="#186A36"/>
<stop offset="0.78" stop-color="#0B8730"/>
<stop offset="1" stop-color="#00A02C"/>
</linearGradient>
<linearGradient id="paint31_linear_66_1277" x1="93.4965" y1="192.854" x2="29.7294" y2="203.344" gradientUnits="userSpaceOnUse">
<stop stop-color="#24523B"/>
<stop offset="0.2" stop-color="#215839"/>
<stop offset="0.47" stop-color="#186A36"/>
<stop offset="0.78" stop-color="#0B8730"/>
<stop offset="1" stop-color="#00A02C"/>
</linearGradient>
<linearGradient id="paint32_linear_66_1277" x1="58.949" y1="191.67" x2="1.68387" y2="213.926" gradientUnits="userSpaceOnUse">
<stop stop-color="#24523B"/>
<stop offset="0.2" stop-color="#215839"/>
<stop offset="0.47" stop-color="#186A36"/>
<stop offset="0.78" stop-color="#0B8730"/>
<stop offset="1" stop-color="#00A02C"/>
</linearGradient>
<linearGradient id="paint33_linear_66_1277" x1="5.96103" y1="195.793" x2="-46.5566" y2="216.204" gradientUnits="userSpaceOnUse">
<stop stop-color="#24523B"/>
<stop offset="0.2" stop-color="#215839"/>
<stop offset="0.47" stop-color="#186A36"/>
<stop offset="0.78" stop-color="#0B8730"/>
<stop offset="1" stop-color="#00A02C"/>
</linearGradient>
<linearGradient id="paint34_linear_66_1277" x1="27.5023" y1="173.607" x2="-26.3726" y2="194.546" gradientUnits="userSpaceOnUse">
<stop stop-color="#24523B"/>
<stop offset="0.2" stop-color="#215839"/>
<stop offset="0.47" stop-color="#186A36"/>
<stop offset="0.78" stop-color="#0B8730"/>
<stop offset="1" stop-color="#00A02C"/>
</linearGradient>
<linearGradient id="paint35_linear_66_1277" x1="569.273" y1="315.613" x2="531.604" y2="315.613" gradientUnits="userSpaceOnUse">
<stop stop-color="#24523B"/>
<stop offset="0.2" stop-color="#215839"/>
<stop offset="0.47" stop-color="#186A36"/>
<stop offset="0.78" stop-color="#0B8730"/>
<stop offset="1" stop-color="#00A02C"/>
</linearGradient>
<linearGradient id="paint36_linear_66_1277" x1="546.87" y1="318.028" x2="495.131" y2="337.744" gradientUnits="userSpaceOnUse">
<stop stop-color="#006160"/>
<stop offset="0.26" stop-color="#015A5A"/>
<stop offset="0.61" stop-color="#06484B"/>
<stop offset="1" stop-color="#0F2D34"/>
</linearGradient>
<linearGradient id="paint37_linear_66_1277" x1="525.891" y1="297.49" x2="468.266" y2="319.449" gradientUnits="userSpaceOnUse">
<stop stop-color="#006160"/>
<stop offset="0.26" stop-color="#015A5A"/>
<stop offset="0.61" stop-color="#06484B"/>
<stop offset="1" stop-color="#0F2D34"/>
</linearGradient>
<linearGradient id="paint38_linear_66_1277" x1="490.926" y1="344.495" x2="552.241" y2="364.883" gradientUnits="userSpaceOnUse">
<stop stop-color="#24523B"/>
<stop offset="0.2" stop-color="#215839"/>
<stop offset="0.47" stop-color="#186A36"/>
<stop offset="0.78" stop-color="#0B8730"/>
<stop offset="1" stop-color="#00A02C"/>
</linearGradient>
<linearGradient id="paint39_linear_66_1277" x1="534.747" y1="352.069" x2="587.265" y2="372.482" gradientUnits="userSpaceOnUse">
<stop stop-color="#24523B"/>
<stop offset="0.2" stop-color="#215839"/>
<stop offset="0.47" stop-color="#186A36"/>
<stop offset="0.78" stop-color="#0B8730"/>
<stop offset="1" stop-color="#00A02C"/>
</linearGradient>
<linearGradient id="paint40_linear_66_1277" x1="349.452" y1="304.469" x2="401.931" y2="316.026" gradientUnits="userSpaceOnUse">
<stop stop-color="#006160"/>
<stop offset="0.26" stop-color="#015A5A"/>
<stop offset="0.61" stop-color="#06484B"/>
<stop offset="1" stop-color="#0F2D34"/>
</linearGradient>
<linearGradient id="paint41_linear_66_1277" x1="412.521" y1="286.685" x2="463.243" y2="306.013" gradientUnits="userSpaceOnUse">
<stop stop-color="#006160"/>
<stop offset="0.26" stop-color="#015A5A"/>
<stop offset="0.61" stop-color="#06484B"/>
<stop offset="1" stop-color="#0F2D34"/>
</linearGradient>
<linearGradient id="paint42_linear_66_1277" x1="432.708" y1="307.882" x2="482.139" y2="326.718" gradientUnits="userSpaceOnUse">
<stop stop-color="#006160"/>
<stop offset="0.26" stop-color="#015A5A"/>
<stop offset="0.61" stop-color="#06484B"/>
<stop offset="1" stop-color="#0F2D34"/>
</linearGradient>
<linearGradient id="paint43_linear_66_1277" x1="383.07" y1="303.941" x2="436.956" y2="324.474" gradientUnits="userSpaceOnUse">
<stop stop-color="#006160"/>
<stop offset="0.26" stop-color="#015A5A"/>
<stop offset="0.61" stop-color="#06484B"/>
<stop offset="1" stop-color="#0F2D34"/>
</linearGradient>
<linearGradient id="paint44_linear_66_1277" x1="413.825" y1="342.182" x2="351.782" y2="325.993" gradientUnits="userSpaceOnUse">
<stop stop-color="#24523B"/>
<stop offset="0.2" stop-color="#215839"/>
<stop offset="0.47" stop-color="#186A36"/>
<stop offset="0.78" stop-color="#0B8730"/>
<stop offset="1" stop-color="#00A02C"/>
</linearGradient>
<linearGradient id="paint45_linear_66_1277" x1="450.394" y1="318.9" x2="398.919" y2="338.906" gradientUnits="userSpaceOnUse">
<stop stop-color="#24523B"/>
<stop offset="0.2" stop-color="#215839"/>
<stop offset="0.47" stop-color="#186A36"/>
<stop offset="0.78" stop-color="#0B8730"/>
<stop offset="1" stop-color="#00A02C"/>
</linearGradient>
<linearGradient id="paint46_linear_66_1277" x1="456.892" y1="373.672" x2="499.996" y2="293.884" gradientUnits="userSpaceOnUse">
<stop stop-color="#24523B"/>
<stop offset="0.2" stop-color="#215839"/>
<stop offset="0.47" stop-color="#186A36"/>
<stop offset="0.78" stop-color="#0B8730"/>
<stop offset="1" stop-color="#00A02C"/>
</linearGradient>
<linearGradient id="paint47_linear_66_1277" x1="329.601" y1="465.044" x2="329.601" y2="279.061" gradientUnits="userSpaceOnUse">
<stop stop-color="#1B8C00"/>
<stop offset="1" stop-color="#5E9318"/>
</linearGradient>
<clipPath id="clip0_66_1277">
<rect width="551" height="308" fill="white"/>
</clipPath>
</defs>
</svg>
