<svg width="48" height="48" viewBox="0 0 48 48" fill="none" xmlns="http://www.w3.org/2000/svg">
<path d="M4.86523 44.8743V28.0287H9.67393V15.7809H22.0544V12.7461C21.3957 12.2828 20.8893 11.7548 20.5353 11.1621C20.1814 10.5694 20.0044 9.84189 20.0044 8.97946C20.0044 8.41276 20.1044 7.88526 20.3044 7.39696C20.5044 6.90869 20.7917 6.47723 21.1663 6.10256L24 3.13086L26.8337 6.10256C27.2084 6.47723 27.504 6.90869 27.7207 7.39696C27.9374 7.88526 28.0457 8.41276 28.0457 8.97946C28.0457 9.83829 27.8604 10.5651 27.4897 11.16C27.1191 11.7548 26.6044 12.2835 25.9457 12.7461V15.7946H38.3261V28.0287H43.1348V44.8743H4.86523ZM13.5511 27.945H34.4609V19.6461H13.5511V27.945ZM8.74243 41.0091H39.2696V31.8102H8.74243V41.0091Z" fill="black"/>
</svg>
