<svg width="48" height="48" viewBox="0 0 48 48" fill="none" xmlns="http://www.w3.org/2000/svg">
<g clip-path="url(#clip0_66_1494)">
<path d="M2.86138 45.4678L13.1309 16.733L31.7461 35.1483L2.86133 45.4678L2.86138 45.4678ZM9.37003 38.9591L24.7776 33.4526L14.8266 23.4896L9.37003 38.9591ZM28.7309 25.8059L26.695 23.808L43.1276 7.32545L48.2994 12.6874L46.2396 14.6972L43.0515 11.4591L28.7309 25.8059ZM20.1494 17.4483L18.1135 15.3885L21.9635 11.6026L18.1537 7.79285L20.2015 5.78304L25.995 11.5526L20.1494 17.4483ZM24.5211 21.608L22.4733 19.5983L32.4298 9.59174L26.8918 4.09175L28.9515 2.04395L36.4494 9.62979L24.5211 21.608ZM33.0526 30.1776L30.9929 28.1559L38.0831 21.0896L45.2972 28.3156L43.2494 30.3374L38.0592 25.1591L33.0526 30.1776Z" fill="black"/>
</g>
<defs>
<clipPath id="clip0_66_1494">
<rect width="48" height="48" fill="white"/>
</clipPath>
</defs>
</svg>
