<svg width="48" height="48" viewBox="0 0 48 48" fill="none" xmlns="http://www.w3.org/2000/svg">
<path d="M10.1829 42.8085V36.965C9.20825 36.3889 8.5106 35.5827 8.08993 34.5464C7.6693 33.5101 7.45898 32.4344 7.45898 31.3194V11.1455C7.45898 8.49414 8.76225 6.56211 11.3688 5.34937C13.9753 4.13664 18.2037 3.53027 24.0541 3.53027C29.7402 3.53027 33.9117 4.14614 36.5684 5.37787C39.2252 6.60964 40.5535 8.53217 40.5535 11.1455V31.3194C40.5535 32.4338 40.3412 33.509 39.9166 34.5448C39.492 35.5807 38.7963 36.3885 37.8296 36.9685V42.8085H32.9144V38.7085H15.0861V42.8085H10.1829ZM24.0122 9.88897H37.0003H10.9242H24.0122ZM32.8899 24.7172H11.0318H36.9688H32.8899ZM11.0318 21.539H36.9688V13.0672H11.0318V21.539ZM16.3317 32.7477C17.1232 32.7477 17.7968 32.4681 18.3525 31.9088C18.9083 31.3496 19.1861 30.6706 19.1861 29.8718C19.1861 29.0842 18.9043 28.4139 18.3407 27.8609C17.7772 27.3078 17.0977 27.0313 16.3022 27.0313C15.5067 27.0313 14.8358 27.3123 14.2894 27.8743C13.743 28.4362 13.4698 29.1138 13.4698 29.9069C13.4698 30.7 13.747 31.3718 14.3012 31.9221C14.8554 32.4725 15.5323 32.7477 16.3317 32.7477ZM31.7044 32.7477C32.4958 32.7477 33.1668 32.4681 33.7171 31.9088C34.2675 31.3496 34.5427 30.6706 34.5427 29.8718C34.5427 29.0842 34.2636 28.4139 33.7054 27.8609C33.1472 27.3078 32.4703 27.0313 31.6749 27.0313C30.8794 27.0313 30.2058 27.3123 29.654 27.8743C29.1023 28.4362 28.8264 29.1138 28.8264 29.9069C28.8264 30.7 29.1062 31.3718 29.6658 31.9221C30.2254 32.4725 30.9049 32.7477 31.7044 32.7477ZM10.9242 9.88897H37.0003C36.1749 9.03171 34.6162 8.35507 32.3242 7.85907C30.0322 7.36304 27.2615 7.11502 24.0122 7.11502C20.147 7.11502 17.1347 7.34202 14.9753 7.79602C12.8159 8.25002 11.4655 8.94767 10.9242 9.88897ZM15.1318 35.1237H32.8919C34.0432 35.1237 35.0105 34.664 35.7938 33.7444C36.5771 32.8249 36.9688 31.7814 36.9688 30.6141V24.7172H11.0318V30.6249C11.0318 31.7988 11.4235 32.842 12.2068 33.7547C12.9901 34.6674 13.9651 35.1237 15.1318 35.1237Z" fill="black"/>
</svg>
