<svg width="48" height="48" viewBox="0 0 48 48" fill="none" xmlns="http://www.w3.org/2000/svg">
<path d="M24.0789 32.9203C26.5791 32.9203 28.701 32.0444 30.4445 30.2928C32.1879 28.5411 33.0597 26.4141 33.0597 23.9118C33.0597 21.4127 32.1838 19.2925 30.4322 17.551C28.6805 15.8095 26.5535 14.9388 24.0512 14.9388C21.5521 14.9388 19.4319 15.8138 17.6904 17.564C15.9489 19.3141 15.0782 21.4393 15.0782 23.9395C15.0782 26.4397 15.9532 28.5616 17.7034 30.3051C19.4535 32.0485 21.5787 32.9203 24.0789 32.9203ZM24.0629 25.9235C23.5122 25.9235 23.0412 25.7318 22.6499 25.3485C22.2586 24.9652 22.0629 24.4902 22.0629 23.9235C22.0629 23.3648 22.2586 22.8918 22.6499 22.5045C23.0412 22.1172 23.5142 21.9235 24.0689 21.9235C24.6316 21.9235 25.1046 22.1172 25.4879 22.5045C25.8713 22.8918 26.0629 23.3668 26.0629 23.9295C26.0629 24.4922 25.8713 24.9652 25.4879 25.3485C25.1046 25.7318 24.6296 25.9235 24.0629 25.9235ZM24.051 44.7953C21.1992 44.7953 18.4951 44.2451 15.9386 43.1447C13.3822 42.0443 11.1625 40.5587 9.27978 38.6877C7.39701 36.8167 5.91354 34.6047 4.82938 32.0516C3.74521 29.4985 3.20312 26.7899 3.20312 23.9257C3.20312 21.0696 3.74979 18.3642 4.84313 15.8095C5.93649 13.2548 7.42146 11.0335 9.29802 9.14546C11.1746 7.25746 13.3872 5.76984 15.9358 4.68261C18.4845 3.59537 21.2013 3.05176 24.0864 3.05176C28.5514 3.05176 32.5813 4.33002 36.1761 6.88656C39.771 9.44309 42.3564 12.8079 43.9325 16.9811H39.6934C38.168 13.9637 36.0141 11.534 33.2317 9.69201C30.4493 7.84997 27.4004 6.92896 24.085 6.92896C19.331 6.92896 15.3064 8.57957 12.0112 11.8808C8.71597 15.182 7.06838 19.2012 7.06838 23.9385C7.06838 28.6758 8.71811 32.6921 12.0176 35.9873C15.317 39.2825 19.3321 40.9301 24.0627 40.9301C26.7115 40.9301 29.2241 40.3404 31.6005 39.161C33.9769 37.9817 36.0365 36.3753 37.7792 34.342V39.5051C35.8848 41.2217 33.7625 42.5325 31.4122 43.4376C29.062 44.3427 26.6082 44.7953 24.051 44.7953ZM40.7792 36.6496V19.9811H44.5129V36.6496H40.7792ZM42.8111 44.4659C42.2446 44.4659 41.769 44.275 41.3844 43.8932C40.9998 43.5114 40.8075 43.0345 40.8075 42.4625C40.8075 41.8905 40.9984 41.4122 41.3802 41.0276C41.762 40.643 42.2362 40.4507 42.8027 40.4507C43.3693 40.4507 43.8456 40.6416 44.2317 41.0234C44.6177 41.4052 44.8108 41.8821 44.8108 42.4541C44.8108 43.0261 44.6191 43.5044 44.2359 43.889C43.8526 44.2736 43.3777 44.4659 42.8111 44.4659Z" fill="black"/>
</svg>
