<svg width="48" height="48" viewBox="0 0 48 48" fill="none" xmlns="http://www.w3.org/2000/svg">
<path d="M17.008 42.8095H5.14062V23.9535C5.14062 21.3376 5.63504 18.8937 6.62387 16.6219C7.61271 14.35 8.95836 12.3621 10.6608 10.658C12.3633 8.95388 14.3616 7.60618 16.6557 6.61488C18.9497 5.62358 21.4014 5.12793 24.0106 5.12793C26.6197 5.12793 29.0701 5.62174 31.3617 6.60938C33.6532 7.59701 35.6515 8.94673 37.3566 10.6585C39.0616 12.3704 40.4072 14.3617 41.3932 16.6326C42.3792 18.9035 42.8722 21.3464 42.8722 23.9612V42.8095H30.9928V26.5682H38.995V23.9616C38.995 19.7897 37.5366 16.254 34.6198 13.3544C31.703 10.4549 28.1609 9.00513 23.9935 9.00513C19.8261 9.00513 16.2863 10.4549 13.3741 13.3544C10.462 16.254 9.00587 19.7897 9.00587 23.9616V26.5682H17.008V42.8095ZM13.1428 30.4334H9.00587V38.9442H13.1428V30.4334ZM34.87 30.4334V38.9442H38.995V30.4334H34.87Z" fill="black"/>
</svg>
