<svg width="48" height="48" viewBox="0 0 48 48" fill="none" xmlns="http://www.w3.org/2000/svg">
<path d="M8.45378 40.9634V37.0862H12.6918V27.1438L0.957031 9.34277H28.3038L16.569 27.1438V37.0862H20.807V40.9634H8.45378ZM10.4418 17.3308H18.819L21.4396 13.208H7.82118L10.4418 17.3308ZM32.1758 40.9634C30.3719 40.9634 28.8749 40.3673 27.6847 39.175C26.4945 37.9827 25.8994 36.4845 25.8994 34.6804C25.8994 32.8684 26.4952 31.3714 27.6868 30.1895C28.8784 29.0076 30.3757 28.4167 32.1788 28.4167C32.5999 28.4167 33.0064 28.4522 33.3985 28.5232C33.7905 28.5942 34.1807 28.6754 34.569 28.7667V9.34277H45.056V15.4417H38.4462V34.6841C38.4462 36.4871 37.8513 37.9845 36.6614 39.1761C35.4716 40.3676 33.9764 40.9634 32.1758 40.9634Z" fill="black"/>
</svg>
