<svg width="48" height="48" viewBox="0 0 48 48" fill="none" xmlns="http://www.w3.org/2000/svg">
<path d="M44.8713 39.9687L40.9941 36.1034V13.3556H32.3115L28.4256 9.00561H19.6093L16.9289 12.0382L14.2354 9.29471L17.9424 5.12841H30.1115L34.0332 9.47841H44.8713V39.9687ZM3.13979 42.86V9.47841H9.90169L13.7669 13.3556H7.00499V38.9947H39.406L43.2832 42.86H3.13979ZM31.3234 30.8621C30.5588 32.0672 29.5283 33.0288 28.232 33.7469C26.9357 34.465 25.5249 34.8241 23.9995 34.8241C21.4902 34.8241 19.4173 33.9991 17.7806 32.3491C16.144 30.6991 15.3256 28.6328 15.3256 26.1502C15.3256 24.5846 15.6756 23.1559 16.3756 21.8641C17.0756 20.5722 18.0296 19.5429 19.2376 18.7763L22.0115 21.5502C21.1108 21.9044 20.3876 22.493 19.8419 23.3159C19.2963 24.1387 19.0234 25.0851 19.0234 26.1551C19.0234 27.5772 19.4965 28.7612 20.4425 29.7072C21.3885 30.6532 22.5742 31.1263 23.9995 31.1263C25.0249 31.1263 25.9602 30.8532 26.8055 30.3072C27.6508 29.7612 28.2488 29.0382 28.5995 28.1382L31.3234 30.8621ZM30.1734 19.9763C30.9655 20.7429 31.5802 21.6429 32.0175 22.6763C32.4548 23.7096 32.6734 24.8596 32.6734 26.1263C32.6734 26.3984 32.6588 26.6494 32.6294 26.8795C32.6001 27.1096 32.5521 27.344 32.4854 27.5828L22.555 17.6643C22.7938 17.631 23.0282 17.5913 23.2582 17.5453C23.4883 17.4993 23.7394 17.4763 24.0115 17.4763C25.2528 17.4763 26.3984 17.7052 27.4484 18.1632C28.4984 18.6212 29.4068 19.2255 30.1734 19.9763ZM41.9071 46.5621L0.869141 5.52406L3.43324 2.95996L44.4713 43.998L41.9071 46.5621Z" fill="black"/>
</svg>
