<svg width="48" height="48" viewBox="0 0 48 48" fill="none" xmlns="http://www.w3.org/2000/svg">
<path d="M23.9758 34.8236C26.4506 34.8236 28.5191 33.9933 30.1812 32.3327C31.8432 30.672 32.6743 28.6055 32.6743 26.1331C32.6743 23.6937 31.8412 21.6409 30.1751 19.9749C28.5091 18.3088 26.4386 17.4758 23.9637 17.4758C21.4969 17.4758 19.4406 18.3079 17.7949 19.9721C16.1493 21.6362 15.3265 23.6964 15.3265 26.1525C15.3265 28.6165 16.1513 30.6777 17.8009 32.3361C19.4506 33.9944 21.5089 34.8236 23.9758 34.8236ZM23.9616 31.1258C22.5621 31.1258 21.3893 30.6539 20.4433 29.7102C19.4973 28.7666 19.0243 27.5809 19.0243 26.1532C19.0243 24.7255 19.4985 23.5366 20.4468 22.5866C21.3952 21.6366 22.5726 21.1616 23.9789 21.1616C25.3853 21.1616 26.5718 21.6305 27.5384 22.5683C28.5051 23.5061 28.9884 24.6938 28.9884 26.1314C28.9884 27.5689 28.5105 28.7607 27.5547 29.7067C26.5988 30.6528 25.4012 31.1258 23.9616 31.1258ZM3.14062 42.8595V9.47793H14.0286L17.9384 5.12793H30.1123L34.022 9.47793H44.8721V42.8595H3.14062ZM7.00583 38.9942H40.9949V13.3551H32.3123L28.4265 9.00513H19.6102L15.7145 13.3551H7.00583V38.9942Z" fill="black"/>
</svg>
