<svg width="48" height="48" viewBox="0 0 48 48" fill="none" xmlns="http://www.w3.org/2000/svg">
<path d="M13.7629 44.5526V25.9983C11.9469 25.5968 10.3821 24.6468 9.06831 23.1483C7.75454 21.6497 7.09766 19.8665 7.09766 17.7988V3.58848H10.8314V17.7928H13.7629V3.58848H17.4846V17.7928H20.4161V3.58848H24.1618V17.7988C24.1618 19.8665 23.5029 21.6497 22.1852 23.1483C20.8674 24.6468 19.3005 25.5964 17.4846 25.9969V44.5526H13.7629ZM35.3781 44.5526V28.4504H29.3477V12.7504C29.3477 9.92236 30.25 7.67133 32.0547 5.99733C33.8594 4.32329 36.2118 3.50766 39.1118 3.55043V44.5526H35.3781Z" fill="black"/>
</svg>
