<svg width="48" height="48" viewBox="0 0 48 48" fill="none" xmlns="http://www.w3.org/2000/svg">
<path d="M15.4222 38.9944H30.1895V17.8292H25.8591C25.007 17.8292 24.2638 18.0713 23.6298 18.5553C22.9957 19.0394 22.2678 19.7658 21.4462 20.7346C20.5171 21.8057 19.5149 22.6812 18.4396 23.3613C17.3642 24.0413 16.3584 24.5147 15.4222 24.7814V38.9944ZM11.5569 42.8597V24.6779C9.81419 24.1484 8.30913 23.1982 7.04173 21.8276C5.77433 20.4569 5.14062 18.801 5.14062 16.8597C5.14062 14.9566 5.69262 13.2689 6.79662 11.7965C7.90059 10.3241 9.30421 9.25114 11.0075 8.57758C11.8122 6.96054 13.0022 5.63971 14.5776 4.61508C16.1529 3.59044 17.913 3.07812 19.8578 3.07812C21.0462 3.07812 22.1511 3.27527 23.1725 3.66957C24.194 4.06391 25.1386 4.62944 26.0063 5.36617C26.2908 5.30747 26.5847 5.25114 26.888 5.19717C27.1914 5.14317 27.5071 5.11617 27.8352 5.11617C30.2504 5.11617 32.3098 5.97279 34.0135 7.68603C35.7171 9.39926 36.5689 11.4571 36.5689 13.8597C36.5689 14.5344 36.4372 15.2038 36.1738 15.8679C35.9104 16.532 35.574 17.0727 35.1646 17.4901H42.8722V37.802H34.0556V42.8597H11.5569ZM9.00587 16.8832C9.00587 18.0461 9.47163 19.0173 10.4031 19.7968C11.3347 20.5764 12.3932 20.9662 13.5787 20.9662C14.5488 20.9662 15.4607 20.7238 16.3144 20.239C17.1681 19.7542 18.095 18.9165 19.095 17.726C20.0348 16.6194 21.0444 15.7138 22.1237 15.0091C23.203 14.3044 24.4481 13.952 25.8591 13.952H32.5178C32.4765 12.6412 32.0384 11.487 31.2035 10.4896C30.3685 9.49211 29.2337 8.99338 27.7989 8.99338C27.2042 8.99338 26.6209 9.08104 26.0488 9.25638C25.4767 9.43174 25.1207 9.56074 24.9809 9.64338L23.8211 8.61942C23.2385 8.11586 22.5984 7.71263 21.901 7.40973C21.2035 7.10679 20.4954 6.95533 19.7765 6.95533C18.67 6.95533 17.6276 7.24301 16.6493 7.81838C15.6711 8.39371 14.9566 9.16146 14.5059 10.1216L13.7439 11.7955L11.8722 12.4814C11.0294 12.8067 10.341 13.4076 9.80693 14.2838C9.27289 15.1601 9.00587 16.0266 9.00587 16.8832ZM34.0548 33.9368H38.995V21.3553H34.0548V33.9368Z" fill="black"/>
</svg>
