<svg width="48" height="48" viewBox="0 0 48 48" fill="none" xmlns="http://www.w3.org/2000/svg">
<path d="M12.2509 46V28.8261H7.50089C6.16022 28.8261 5.02706 28.3585 4.10139 27.4233C3.17572 26.4881 2.71289 25.3434 2.71289 23.989C2.71289 22.6346 3.17572 21.4958 4.10139 20.5727C5.02706 19.6496 6.16022 19.188 7.50089 19.188H12.2509V16.038H7.50089C6.16022 16.038 5.02706 15.5732 4.10139 14.6434C3.17572 13.7137 2.71289 12.5682 2.71289 11.2069C2.71289 9.84567 3.17572 8.7042 4.10139 7.7825C5.02706 6.86083 6.16022 6.4 7.50089 6.4H12.2509V2H15.7509V6.4H20.5009C21.8589 6.4 23.0067 6.86407 23.9444 7.7922C24.8821 8.72037 25.3509 9.86047 25.3509 11.2125C25.3509 12.5754 24.8821 13.7203 23.9444 14.6474C23.0067 15.5745 21.8589 16.038 20.5009 16.038H15.7509V19.188H20.5009C21.8589 19.188 23.0067 19.6521 23.9444 20.5802C24.8821 21.5084 25.3509 22.6485 25.3509 24.0005C25.3509 25.3526 24.8821 26.4949 23.9444 27.4274C23.0067 28.3598 21.8589 28.8261 20.5009 28.8261H15.7509V46H12.2509ZM7.50089 25.8261H20.5009C20.9929 25.8261 21.4243 25.6491 21.7949 25.2951C22.1656 24.9411 22.3509 24.5098 22.3509 24.0011C22.3509 23.4924 22.1656 23.063 21.7949 22.713C21.4243 22.3631 20.9929 22.188 20.5009 22.188H7.50089C7.00886 22.188 6.58784 22.3631 6.23784 22.713C5.88784 23.063 5.71284 23.4924 5.71284 24.0011C5.71284 24.5098 5.88784 24.9411 6.23784 25.2951C6.58784 25.6491 7.00886 25.8261 7.50089 25.8261ZM7.50089 13.038H20.5009C20.9929 13.038 21.4243 12.861 21.7949 12.507C22.1656 12.1531 22.3509 11.7237 22.3509 11.219C22.3509 10.7143 22.1656 10.285 21.7949 9.931C21.4243 9.577 20.9929 9.4 20.5009 9.4H7.50089C7.00886 9.4 6.58784 9.577 6.23784 9.931C5.88784 10.285 5.71284 10.7143 5.71284 11.219C5.71284 11.7237 5.88784 12.1531 6.23784 12.507C6.58784 12.861 7.00886 13.038 7.50089 13.038ZM29.7509 46V42.512H34.2509V27.9881C32.3589 27.596 30.8025 26.6493 29.5819 25.1478C28.3612 23.6463 27.7509 21.9304 27.7509 20V2H44.2509V20C44.2509 21.9254 43.6406 23.64 42.4199 25.144C41.1993 26.648 39.6429 27.596 37.7509 27.9881V42.512H42.2509V46H29.7509ZM36.0056 24.75C37.3358 24.75 38.4592 24.2906 39.3759 23.3717C40.2926 22.4528 40.7509 21.3289 40.7509 20V15.488H31.2509V20C31.2509 21.3289 31.7108 22.4528 32.6306 23.3717C33.5505 24.2906 34.6755 24.75 36.0056 24.75ZM31.2509 13H40.7509V5.48805H31.2509V13Z" fill="black"/>
</svg>
